# xmcd
#
# Track frame offsets:
#	150
#	13100
#	27258
#	40217
#	50225
#	70922
#	92055
#	110436
#	129472
#	144838
#	169180
#
# Disc length: 2468 seconds
#
# Revision: 0
# Processed by: cddbd v1.4PL0 Copyright (c) Steve Scherf et al.
# Submitted via: EasyCDDAExtractor 4.5.0.2
#
DISCID=9509a20b
DTITLE=Pinto Bennett and Famous Motel Cowboys - Pure Quill
DYEAR=1996
DGENRE=Country
TTITLE0=You Cared Enough To Lie
TTITLE1=I Ain't In It For The Money
TTITLE2=True Lovin' Daddy
TTITLE3=No Sweat
TTITLE4=Stranger In The Mirror
TTITLE5=Livin' And Dyin' For Love
TTITLE6=Prairie Blues
TTITLE7=Peaceful Woman
TTITLE8=The Ballad Of Hai-sing ( Or Far East, Man)
TTITLE9=Different Ways To Sing The Blues
TTITLE10=Pure Quill
EXTD=
EXTT0=
EXTT1=
EXTT2=
EXTT3=
EXTT4=
EXTT5=
EXTT6=
EXTT7=
EXTT8=
EXTT9=
EXTT10=
PLAYORDER=
